<?xml version="1.0" encoding="iso-8859-1"?>
<!-- Uploaded to: SVG Repo, www.svgrepo.com, Generator: SVG Repo Mixer Tools -->
<svg fill="#000000" height="800px" width="800px" version="1.1" id="Layer_1" xmlns="http://www.w3.org/2000/svg" xmlns:xlink="http://www.w3.org/1999/xlink" 
	 viewBox="0 0 513.6 513.6" xml:space="preserve">
<g>
	<g>
		<path d="M335.2,129.6c35.2-46.4,33.6-94.4,33.6-97.6c0-8-8-14.4-16-16c-1.6,0-30.4,1.6-57.6,30.4c-6.4-16-16-28.8-27.2-41.6
			c-6.4-6.4-16-6.4-22.4,0c-11.2,12.8-20.8,27.2-27.2,41.6c-27.2-28.8-54.4-28.8-56-28.8c-9.6,0-16,6.4-16,16
			c0,1.6-1.6,49.6,33.6,96c-59.2,25.6-99.2,84.8-99.2,153.6V344c0,78.4,52.8,144,126.4,163.2c1.6,0,3.2,1.6,4.8,1.6
			c12.8,3.2,25.6,4.8,38.4,4.8h12.8c94.4,0,169.6-75.2,169.6-169.6v-60.8C432.8,216,392.8,156.8,335.2,129.6z M304.8,92.8
			c0-1.6,0-3.2,0-4.8c9.6-16,20.8-27.2,30.4-32c-3.2,16-11.2,40-32,62.4h-1.6C303.2,110.4,304.8,102.4,304.8,92.8z M309.6,153.6
			c20.8,8,40,20.8,56,36.8l-36.8,36.8l-46.4-46.4L309.6,153.6z M260,203.2l46.4,46.4L260,296l-46.4-46.4L260,203.2z M247.2,145.6
			c1.6,0,1.6,0,3.2,0h12.8c3.2,0,4.8,0,8,0L260,156.8L247.2,145.6z M237.6,318.4L196,360l-46.4-46.4l41.6-41.6L237.6,318.4z
			 M260,340.8l41.6,41.6L260,424l-41.6-41.6L260,340.8z M282.4,318.4l46.4-46.4l41.6,41.6L324,360L282.4,318.4z M256.8,43.2
			c9.6,14.4,16,32,16,51.2c0,6.4-1.6,14.4-3.2,20.8c-1.6,0-3.2,0-6.4,0h-12.8c-1.6,0-3.2,0-6.4,0c-1.6-8-3.2-14.4-3.2-22.4
			C240.8,75.2,247.2,57.6,256.8,43.2z M208.8,86.4c0,1.6,0,4.8,0,6.4c0,8,1.6,16,3.2,25.6C192.8,96,183.2,72,180,56
			C188,60.8,199.2,70.4,208.8,86.4z M208.8,152l28.8,28.8l-46.4,46.4l-38.4-38.4C167.2,171.2,186.4,158.4,208.8,152z M132,214.4
			l35.2,35.2l-41.6,41.6l-12.8-12.8C114.4,254.4,120.8,232,132,214.4z M112.8,348.8l12.8-12.8l46.4,46.4l-36.8,36.8
			C120.8,398.4,112.8,374.4,112.8,348.8z M208.8,475.2c-19.2-6.4-36.8-17.6-52.8-30.4l38.4-38.4L236,448L208.8,475.2z M263.2,481.6
			h-12.8h-1.6l11.2-11.2l11.2,11.2C268,481.6,266.4,481.6,263.2,481.6z M309.6,473.6c-1.6,0-3.2-1.6-3.2-3.2l-24-24l41.6-41.6
			l36.8,36.8C346.4,456,328.8,467.2,309.6,473.6z M380,417.6L346.4,384l46.4-46.4l8,8C400.8,371.2,392.8,395.2,380,417.6z
			 M392.8,291.2l-41.6-41.6l32-32c11.2,19.2,17.6,41.6,17.6,65.6L392.8,291.2z"/>
	</g>
</g>
</svg>