<?xml version="1.0" encoding="iso-8859-1"?>
<!-- Uploaded to: SVG Repo, www.svgrepo.com, Generator: SVG Repo Mixer Tools -->
<svg fill="#000000" version="1.1" id="Layer_1" xmlns="http://www.w3.org/2000/svg" xmlns:xlink="http://www.w3.org/1999/xlink" 
	 viewBox="0 0 512.001 512.001" xml:space="preserve">
<g>
	<g>
		<path d="M279.375,109.919c-0.115-1.069-0.234-2.135-0.363-3.193c4.881,1.244,9.975,1.874,15.285,1.874
			c27.026,0,59.553-16.081,97.025-48.028l16.002-13.642l-17.652-11.425C338.078,2.113,297.361-7.791,268.649,6.07
			c-7.541,3.641-13.409,8.508-17.975,13.773c-4.236-7.73-7.354-12.339-7.876-13.097l-25.802,17.761
			c0.219,0.317,9.923,14.684,18.625,37.576c0.444,1.581,1.352,4.475,2.895,8.077c3.832,11.371,7.199,24.409,9.088,38.585
			C140.254,113.164,54.279,201.863,54.279,310.28c0,111.23,90.492,201.721,201.721,201.721s201.721-90.492,201.721-201.721
			C457.723,206.955,379.633,121.541,279.375,109.919z M282.268,34.279c8.985-4.337,29.617-7.178,71.579,16.174
			c-38.343,28.506-59.137,28.522-68.619,25.494c-9.154-2.923-14.392-10.652-17.079-16.207c-0.469-1.381-0.943-2.742-1.422-4.081
			C268.011,50.28,271.831,39.318,282.268,34.279z M256.001,480.675c-93.957,0-170.397-76.44-170.397-170.397
			c0-91.628,72.7-166.583,163.447-170.243c-0.47,10.664-1.979,21.688-4.854,32.898c-18.327-3.984-29.69-12.739-30.599-13.458
			l0.078,0.064l-19.766,24.302c1.615,1.314,16.477,13.005,40.722,18.98c7.862,1.938,17.26,3.374,27.848,3.374
			c19.823,0,43.817-5.034,69.698-21.227l-16.615-26.556c-14.122,8.836-27.388,13.445-39.388,15.364
			c2.384-10.967,3.713-21.716,4.198-32.143c82.453,11.862,146.025,82.964,146.025,168.647
			C426.398,404.236,349.959,480.675,256.001,480.675z"/>
	</g>
</g>
<g>
	<g>
		<rect x="141.494" y="356.37" width="25.06" height="25.06"/>
	</g>
</g>
<g>
	<g>
		<rect x="197.879" y="349.06" width="25.06" height="25.06"/>
	</g>
</g>
<g>
	<g>
		<rect x="191.614" y="404.056" width="25.06" height="25.06"/>
	</g>
</g>
</svg>