<?xml version="1.0" encoding="iso-8859-1"?>
<!-- Uploaded to: SVG Repo, www.svgrepo.com, Generator: SVG Repo Mixer Tools -->
<svg fill="#000000" height="800px" width="800px" version="1.1" id="Layer_1" xmlns="http://www.w3.org/2000/svg" xmlns:xlink="http://www.w3.org/1999/xlink" 
	 viewBox="0 0 512.001 512.001" xml:space="preserve">
<g>
	<g>
		<path d="M317.37,106.393c-12.821-9.873-25.605-13.461-30.629-14.565l37.282-50.171l-25.117-18.666l-27.259,36.684V0h-31.293
			v59.201l-26.906-36.208l-25.117,18.665l37.233,50.104c-4.799,1.025-17.851,4.558-30.932,14.632
			c-14.474,11.146-31.728,32.547-31.728,71.212c0,34.561,9.897,105.26,23.534,168.104c12.419,57.235,32.686,130.728,58.703,155.817
			l10.861,10.473l10.861-10.473c26.017-25.089,46.284-98.582,58.703-155.817c13.637-62.844,23.534-133.543,23.534-168.104
			C349.098,138.941,331.844,117.539,317.37,106.393z M314.959,218.488h-47.3v31.293h43.345c-3.817,26.896-9.193,57.829-16.02,89.294
			c-1.381,6.365-2.785,12.565-4.206,18.606h-40.43v31.293h32.509c-8.872,32.493-18.12,58.141-26.856,74.438
			c-12.828-23.928-26.759-68.005-38.982-124.337c-1.811-8.345-3.518-16.652-5.123-24.858h38.452v-31.293h-44.174
			c-5.416-31.848-9.064-60.579-10.802-81.776h41.551v-31.293h-42.396c1.427-16.496,7.544-29.231,18.251-37.918
			c7.795-6.324,15.9-8.734,18.66-9.414h49.172c2.529,0.617,10.087,2.83,17.668,8.667c12.957,9.977,19.527,25.595,19.527,46.419
			C317.806,187.084,316.839,201.22,314.959,218.488z"/>
	</g>
</g>
</svg>