<?xml version="1.0" encoding="iso-8859-1"?>
<!-- Uploaded to: SVG Repo, www.svgrepo.com, Generator: SVG Repo Mixer Tools -->
<svg fill="#000000" height="800px" width="800px" version="1.1" id="Layer_1" xmlns="http://www.w3.org/2000/svg" xmlns:xlink="http://www.w3.org/1999/xlink" 
	 viewBox="0 0 512.001 512.001" xml:space="preserve">
<g>
	<g>
		<path d="M428.974,74.593c-9.329-10.43-21.747-17.107-34.971-18.801c-14.069-1.806-27.346,2.15-37.387,11.132
			c-1.02,0.912-1.996,1.871-2.927,2.872c-12.15,0.857-23.392,5.442-32.363,13.291c-0.691-10.9-4.687-21.303-11.561-30.17
			c0.127-1.361,0.189-2.728,0.189-4.096c0-26.919-24.204-48.82-53.955-48.82c-29.752,0-53.955,21.901-53.955,48.82
			c0,1.369,0.064,2.735,0.189,4.096c-6.873,8.867-10.87,19.27-11.561,30.17c-8.971-7.85-20.212-12.435-32.363-13.292
			c-0.93-1.001-1.906-1.96-2.927-2.871c-10.042-8.981-23.322-12.94-37.388-11.133c-13.223,1.695-25.643,8.371-34.971,18.801
			c-19.834,22.175-19.644,54.817,0.421,72.763c1.02,0.912,2.08,1.776,3.18,2.59c2.238,12.175,8.189,22.995,17.23,31.08
			c8.902,7.961,20.005,12.627,32.063,13.614c2.381,3.924,5.32,7.475,8.74,10.534c8.785,7.857,19.956,12.01,31.999,12.01
			c2.266,0,4.563-0.148,6.88-0.444c8.441-1.082,16.565-4.12,23.833-8.805l19.507,19.573c-4.942,0.936-10.252,2.19-15.729,3.867
			c-32.964,10.092-56.569,30.557-68.264,59.185c-13.04,31.917-7.232,71.891,16.795,115.598
			c20.262,36.856,51.958,72.902,86.962,98.894l9.356,6.947l9.356-6.947c35.005-25.992,66.701-62.037,86.962-98.894
			c24.027-43.707,29.835-83.681,16.795-115.598c-11.696-28.628-35.3-49.094-68.264-59.185c-4.843-1.483-9.554-2.634-13.995-3.528
			l19.071-19.135c9.151,5.551,19.357,8.411,29.338,8.41c11.701-0.001,23.088-3.909,32.076-11.949
			c3.42-3.058,6.358-6.609,8.74-10.533c12.057-0.988,23.162-5.653,32.063-13.614c9.041-8.087,14.992-18.906,17.23-31.08
			c1.099-0.813,2.16-1.677,3.18-2.59C448.62,129.41,448.808,96.768,428.974,74.593z M196.621,176.195
			c-4.702,5.26-10.766,8.603-17.074,9.411c-5.462,0.698-10.42-0.659-13.963-3.828c-2.156-1.929-3.691-4.405-4.561-7.36
			l-3.717-12.623l-13.078,1.458c-7.542,0.845-14.451-1.156-19.447-5.625c-4.754-4.252-7.504-10.528-7.744-17.671l-0.329-9.766
			l-8.909-4.015c-1.272-0.573-2.425-1.319-3.429-2.216c-7.043-6.3-6.104-19.324,2.05-28.442c4.298-4.806,9.826-7.857,15.565-8.592
			c2.834-0.364,8.224-0.406,12.472,3.394c1.003,0.898,1.873,1.961,2.584,3.162l4.98,8.407l9.742-0.76
			c5.043-0.394,12.33,0.284,18.422,5.732c4.996,4.469,7.749,11.11,7.751,18.701l0.004,13.159l12.957,2.291
			c3.032,0.536,5.665,1.786,7.82,3.714C206.564,151.743,205.603,166.153,196.621,176.195z M292.495,261.646
			c23.532,7.413,39.534,21.135,47.563,40.785c19.224,47.053-26.793,123.449-84.057,170.134
			c-12.371-10.085-24.216-21.56-34.992-33.824h29.598v-31.389h-53.62c-5.479-8.325-10.352-16.772-14.481-25.191h46.169v-31.389
			h-57.956c-2.234-8.903-3.351-17.539-3.187-25.714h47.664v-31.389h-38.881c8.867-15.007,23.339-25.769,43.193-32.023
			c16.153-5.088,30.765-5.469,34.778-5.469c0.69,0,1.066,0.012,1.084,0.012l0.632,0.022l0.585-0.02
			C256.758,256.184,273.571,255.686,292.495,261.646z M228.607,184.777c1.056-2.003,1.992-4.04,2.803-6.106
			c2.84,1.252,5.815,2.285,8.897,3.096v14.749L228.607,184.777z M271.695,198.594v-16.829c3.07-0.808,6.036-1.835,8.865-3.081
			c1.005,2.548,2.186,5.04,3.547,7.456L271.695,198.594z M281.285,104.725l-9.806,8.775l6.932,11.186
			c1.622,2.617,2.444,5.41,2.444,8.305c0,10.524-11.382,19.413-24.854,19.413s-24.854-8.89-24.854-19.413
			c0-2.894,0.822-5.688,2.444-8.305l6.932-11.186l-9.806-8.775c-5.656-5.062-8.772-11.542-8.772-18.245
			c0-6.377,2.845-12.611,8.009-17.552l7.061-6.756l-2.946-9.317c-0.421-1.33-0.634-2.688-0.634-4.035
			c0-9.449,10.334-17.431,22.566-17.431c12.232,0,22.566,7.982,22.566,17.431c0,1.347-0.214,2.704-0.634,4.035l-2.946,9.317
			l7.061,6.756c5.165,4.942,8.009,11.174,8.009,17.552C290.057,93.182,286.942,99.662,281.285,104.725z M407.629,123.959
			c-1.003,0.898-2.157,1.644-3.43,2.217l-8.909,4.015l-0.328,9.766c-0.24,7.144-2.989,13.42-7.744,17.671
			c-4.996,4.469-11.904,6.467-19.447,5.625l-13.078-1.458l-3.718,12.623c-0.871,2.954-2.404,5.43-4.561,7.359
			c-7.843,7.016-22.058,4.458-31.04-5.584c-4.706-5.261-7.353-11.659-7.456-18.016c-0.088-5.505,1.814-10.282,5.357-13.45
			c2.156-1.928,4.788-3.179,7.82-3.714l12.958-2.29l0.004-13.159c0.002-7.591,2.755-14.233,7.751-18.701
			c5.2-4.651,11.269-5.824,16.071-5.824c0.824,0,1.613,0.035,2.352,0.092l9.744,0.76l4.98-8.409c0.71-1.199,1.579-2.262,2.583-3.161
			c4.248-3.799,9.637-3.758,12.472-3.394c5.739,0.736,11.267,3.788,15.566,8.593C413.733,104.635,414.671,117.661,407.629,123.959z"
			/>
	</g>
</g>
</svg>